# xmcd
#
# Track frame offsets: 
#        150
#        18507
#        40850
#        59807
#        77672
#        99702
#        121315
#        145070
#        159885
#        181712
#        199607
#        222040
#
# Disc length: 3247 seconds
#
# Revision: 3
# Processed by: cddbd v1.5.2PL0 Copyright (c) Steve Scherf et al.
# Submitted via: ExactAudioCopy v0.95a5
#
DISCID=9b0cad0c
DTITLE=Mazzy Star - Among My Swan
DYEAR=1996
DGENRE=Pop/Funk
TTITLE0=Disappear
TTITLE1=Flowers in December
TTITLE2=Rhymes of an Hour
TTITLE3=Cry, Cry
TTITLE4=Take Everything
TTITLE5=Still Cold
TTITLE6=All Your Sisters
TTITLE7=I've Been Let Down
TTITLE8=Roseblood
TTITLE9=Happy
TTITLE10=Umbilical
TTITLE11=Look on Down From the Bridge
EXTD=YEAR: 1996 ID3G:   0
EXTT0=
EXTT1=
EXTT2=
EXTT3=
EXTT4=
EXTT5=
EXTT6=
EXTT7=
EXTT8=
EXTT9=
EXTT10=
EXTT11=
PLAYORDER=
